<svg width="1024" height="1024" viewBox="0 0 1024 1024" fill="none"
  xmlns="http://www.w3.org/2000/svg">
  <path fillRule="evenodd" clip-rule="evenodd"
    d="M512 553.25C580.069 553.25 635.25 498.069 635.25 430C635.25 361.931 580.069 306.75 512 306.75C443.931 306.75 388.75 361.931 388.75 430C388.75 498.069 443.931 553.25 512 553.25Z"
    fill="url(#paint0_linear_11563_75528)" />
  <path fillRule="evenodd" clip-rule="evenodd"
    d="M577.528 415.499C588.684 415.499 597.728 406.455 597.728 395.299C597.728 384.142 588.684 375.099 577.528 375.099C566.372 375.099 557.328 384.142 557.328 395.299C557.328 406.455 566.372 415.499 577.528 415.499Z"
    fill="#FFC95B" />
  <path fillRule="evenodd" clip-rule="evenodd"
    d="M462.062 521.375C482.601 521.375 499.25 504.726 499.25 484.188C499.25 463.649 482.601 447 462.062 447C441.524 447 424.875 463.649 424.875 484.188C424.875 504.726 441.524 521.375 462.062 521.375Z"
    fill="#FFC95B" />
  <path fillRule="evenodd" clip-rule="evenodd"
    d="M469.562 479.299H624.61C620.79 488.111 615.921 496.369 610.252 503.949H469.5V479.299H469.562Z"
    fill="#FFBC5B" />
  <path fillRule="evenodd" clip-rule="evenodd"
    d="M554.423 479.299H399.375C403.196 488.111 408.064 496.369 413.734 503.949H554.485V479.299H554.423Z"
    fill="#FFBC5B" />
  <path fillRule="evenodd" clip-rule="evenodd"
    d="M438.049 528.601C458.632 544.068 484.268 553.251 511.999 553.251C539.73 553.251 565.366 544.068 585.949 528.601H438.049Z"
    fill="#FF2D55" />
  <path fillRule="evenodd" clip-rule="evenodd"
    d="M413.398 503.947C420.424 513.253 428.743 521.572 438.048 528.597H585.948C595.254 521.572 603.573 513.253 610.598 503.947H413.398Z"
    fill="#FC9965" />
  <path
    d="M410.277 405.405C407.777 401.488 408.926 396.285 412.844 393.784L423.485 386.993C425.444 385.743 428.045 386.318 429.295 388.277L431.756 392.132C433.81 391.717 436.341 388.223 438.688 386.437C444.131 382.296 445.884 375.256 445.899 375.185L481.368 352.548L536.23 352.477L540.758 359.571L510.092 379.141C499.514 390.131 500.306 397.866 500.306 397.866L569.499 498.464C572 502.382 569.043 511.437 565.125 513.937L556.625 518.187C552.707 520.688 543.624 520.491 541.123 516.573L481.368 410.875C481.368 410.875 473.524 398.559 458.875 402.375C454.676 403.468 447.193 410.381 445.144 413.11L447.405 416.652C448.655 418.611 448.08 421.213 446.121 422.463L435.48 429.254C431.563 431.754 426.36 430.605 423.859 426.687L410.277 405.405Z"
    fill="url(#paint1_linear_11563_75528)" />
  <path
    d="M418.504 400.375C416.004 396.457 417.153 391.254 421.07 388.754L431.711 381.963C433.67 380.713 436.272 381.287 437.522 383.246L439.245 385.946C439.689 386.642 440.52 387.005 441.313 386.773C443.026 386.272 444.889 385.418 446.743 384.007C451.239 380.586 453.335 373.414 453.936 370.981C454.067 370.452 454.385 369.989 454.844 369.696L489.104 347.831C489.424 347.627 489.797 347.518 490.177 347.517L543.359 347.448C544.043 347.447 544.68 347.796 545.048 348.372L547.908 352.855C548.503 353.786 548.229 355.022 547.298 355.616L518.519 373.983C518.386 374.068 518.26 374.172 518.151 374.286C509.318 383.538 508.551 390.452 508.52 392.328C508.515 392.663 508.632 392.98 508.822 393.257L577.726 493.434C580.226 497.352 576.662 506.592 572.744 509.092L565.65 513.619C561.732 516.12 551.85 515.461 549.35 511.543L487.403 406.674C487.301 406.503 487.179 406.351 487.026 406.224C485.485 404.938 476.094 397.75 462.727 401.231C459.079 402.181 456.254 404.589 454.232 406.995C453.696 407.633 453.668 408.545 454.116 409.248L455.631 411.622C456.881 413.581 456.307 416.182 454.348 417.433L443.707 424.224C439.789 426.724 434.586 425.575 432.086 421.657L418.504 400.375Z"
    fill="white" />
  <path
    d="M371.775 654V620.391H381.478C393.868 620.391 400.064 625.852 400.064 636.773C400.064 641.961 398.345 646.133 394.908 649.289C391.47 652.43 386.861 654 381.079 654H371.775ZM377.329 625.125V649.289H381.783C385.704 649.289 388.751 648.211 390.923 646.055C393.111 643.898 394.204 640.852 394.204 636.914C394.204 629.055 390.134 625.125 381.993 625.125H377.329ZM425.747 643.477H409.387C409.45 645.695 410.13 647.406 411.426 648.609C412.739 649.812 414.536 650.414 416.817 650.414C419.38 650.414 421.731 649.648 423.872 648.117V652.5C421.684 653.875 418.794 654.562 415.2 654.562C411.669 654.562 408.895 653.477 406.88 651.305C404.88 649.117 403.88 646.047 403.88 642.094C403.88 638.359 404.981 635.32 407.184 632.977C409.403 630.617 412.153 629.438 415.434 629.438C418.716 629.438 421.255 630.492 423.051 632.602C424.848 634.711 425.747 637.641 425.747 641.391V643.477ZM420.497 639.633C420.481 637.68 420.02 636.164 419.114 635.086C418.208 633.992 416.958 633.445 415.364 633.445C413.801 633.445 412.473 634.016 411.38 635.156C410.301 636.297 409.637 637.789 409.387 639.633H420.497ZM447.914 652.898C445.992 654.008 443.719 654.562 441.094 654.562C437.531 654.562 434.656 653.453 432.469 651.234C430.281 649 429.188 646.109 429.188 642.562C429.188 638.609 430.36 635.438 432.703 633.047C435.063 630.641 438.211 629.438 442.149 629.438C444.336 629.438 446.266 629.82 447.938 630.586V635.648C446.266 634.398 444.485 633.773 442.594 633.773C440.297 633.773 438.414 634.555 436.945 636.117C435.477 637.664 434.742 639.695 434.742 642.211C434.742 644.695 435.43 646.656 436.805 648.094C438.195 649.531 440.055 650.25 442.383 650.25C444.336 650.25 446.18 649.555 447.914 648.164V652.898ZM473.457 643.477H457.097C457.16 645.695 457.839 647.406 459.136 648.609C460.449 649.812 462.246 650.414 464.527 650.414C467.089 650.414 469.441 649.648 471.582 648.117V652.5C469.394 653.875 466.503 654.562 462.91 654.562C459.378 654.562 456.605 653.477 454.589 651.305C452.589 649.117 451.589 646.047 451.589 642.094C451.589 638.359 452.691 635.32 454.894 632.977C457.113 630.617 459.863 629.438 463.144 629.438C466.425 629.438 468.964 630.492 470.761 632.602C472.558 634.711 473.457 637.641 473.457 641.391V643.477ZM468.207 639.633C468.191 637.68 467.73 636.164 466.824 635.086C465.918 633.992 464.668 633.445 463.074 633.445C461.511 633.445 460.183 634.016 459.089 635.156C458.011 636.297 457.347 637.789 457.097 639.633H468.207ZM499.819 654H494.382V640.477C494.382 635.992 492.796 633.75 489.624 633.75C487.968 633.75 486.601 634.375 485.522 635.625C484.444 636.859 483.905 638.422 483.905 640.312V654H478.444V630H483.905V633.984H483.999C485.796 630.953 488.39 629.438 491.78 629.438C494.39 629.438 496.382 630.289 497.757 631.992C499.132 633.68 499.819 636.125 499.819 639.328V654ZM518.94 653.742C517.877 654.273 516.479 654.539 514.744 654.539C510.088 654.539 507.76 652.305 507.76 647.836V634.266H503.752V630H507.76V624.445L513.198 622.898V630H518.94V634.266H513.198V646.266C513.198 647.688 513.455 648.703 513.971 649.312C514.487 649.922 515.346 650.227 516.549 650.227C517.471 650.227 518.268 649.961 518.94 649.43V653.742ZM537.357 635.18C536.701 634.664 535.756 634.406 534.521 634.406C532.912 634.406 531.568 635.133 530.49 636.586C529.412 638.039 528.873 640.016 528.873 642.516V654H523.435V630H528.873V634.945H528.967C529.498 633.258 530.31 631.945 531.404 631.008C532.513 630.055 533.748 629.578 535.107 629.578C536.092 629.578 536.842 629.727 537.357 630.023V635.18ZM559.431 654H554.157V650.25H554.064C552.407 653.125 549.978 654.562 546.775 654.562C544.415 654.562 542.564 653.922 541.22 652.641C539.892 651.359 539.228 649.664 539.228 647.555C539.228 643.023 541.837 640.383 547.056 639.633L554.181 638.625C554.181 635.203 552.556 633.492 549.306 633.492C546.446 633.492 543.868 634.477 541.571 636.445V631.688C544.103 630.188 547.025 629.438 550.337 629.438C556.4 629.438 559.431 632.422 559.431 638.391V654ZM554.181 642.211L549.142 642.914C547.579 643.117 546.4 643.5 545.603 644.062C544.821 644.609 544.431 645.578 544.431 646.969C544.431 647.984 544.79 648.82 545.509 649.477C546.243 650.117 547.22 650.438 548.439 650.438C550.095 650.438 551.462 649.859 552.54 648.703C553.634 647.531 554.181 646.062 554.181 644.297V642.211ZM571.356 654H565.895V618.469H571.356V654ZM596.687 654H591.414V650.25H591.32C589.664 653.125 587.234 654.562 584.031 654.562C581.672 654.562 579.82 653.922 578.476 652.641C577.148 651.359 576.484 649.664 576.484 647.555C576.484 643.023 579.094 640.383 584.312 639.633L591.437 638.625C591.437 635.203 589.812 633.492 586.562 633.492C583.703 633.492 581.125 634.477 578.828 636.445V631.688C581.359 630.188 584.281 629.438 587.594 629.438C593.656 629.438 596.687 632.422 596.687 638.391V654ZM591.437 642.211L586.398 642.914C584.836 643.117 583.656 643.5 582.859 644.062C582.078 644.609 581.687 645.578 581.687 646.969C581.687 647.984 582.047 648.82 582.766 649.477C583.5 650.117 584.476 650.438 585.695 650.438C587.351 650.438 588.719 649.859 589.797 648.703C590.891 647.531 591.437 646.062 591.437 644.297V642.211ZM624.527 654H619.089V640.477C619.089 635.992 617.503 633.75 614.331 633.75C612.675 633.75 611.308 634.375 610.23 635.625C609.152 636.859 608.613 638.422 608.613 640.312V654H603.152V630H608.613V633.984H608.706C610.503 630.953 613.097 629.438 616.488 629.438C619.097 629.438 621.089 630.289 622.464 631.992C623.839 633.68 624.527 636.125 624.527 639.328V654ZM652.811 654H647.374V649.922H647.28C645.53 653.016 642.835 654.562 639.194 654.562C636.241 654.562 633.874 653.492 632.092 651.352C630.327 649.195 629.444 646.266 629.444 642.562C629.444 638.594 630.421 635.414 632.374 633.023C634.342 630.633 636.96 629.438 640.225 629.438C643.46 629.438 645.811 630.734 647.28 633.328H647.374V618.469H652.811V654ZM647.444 643.031V639.891C647.444 638.188 646.889 636.742 645.78 635.555C644.671 634.367 643.257 633.773 641.538 633.773C639.507 633.773 637.905 634.531 636.733 636.047C635.577 637.562 634.999 639.664 634.999 642.352C634.999 644.789 635.553 646.719 636.663 648.141C637.788 649.547 639.296 650.25 641.186 650.25C643.046 650.25 644.553 649.57 645.71 648.211C646.866 646.836 647.444 645.109 647.444 643.031ZM407.187 716.594C404.655 717.906 401.507 718.562 397.741 718.562C392.866 718.562 388.96 717.023 386.023 713.945C383.085 710.867 381.616 706.828 381.616 701.828C381.616 696.453 383.265 692.109 386.562 688.797C389.874 685.484 394.054 683.828 399.101 683.828C402.351 683.828 405.046 684.289 407.187 685.211V690.742C404.921 689.398 402.421 688.727 399.687 688.727C396.046 688.727 393.093 689.891 390.827 692.219C388.577 694.547 387.452 697.656 387.452 701.547C387.452 705.25 388.507 708.203 390.616 710.406C392.726 712.594 395.499 713.688 398.937 713.688C402.108 713.688 404.858 712.938 407.187 711.438V716.594ZM426.682 699.18C426.026 698.664 425.081 698.406 423.846 698.406C422.237 698.406 420.893 699.133 419.815 700.586C418.737 702.039 418.198 704.016 418.198 706.516V718H412.76V694H418.198V698.945H418.291C418.823 697.258 419.635 695.945 420.729 695.008C421.838 694.055 423.073 693.578 424.432 693.578C425.416 693.578 426.166 693.727 426.682 694.023V699.18ZM450.232 707.477H433.873C433.935 709.695 434.615 711.406 435.912 712.609C437.224 713.812 439.021 714.414 441.303 714.414C443.865 714.414 446.217 713.648 448.357 712.117V716.5C446.17 717.875 443.279 718.562 439.685 718.562C436.154 718.562 433.381 717.477 431.365 715.305C429.365 713.117 428.365 710.047 428.365 706.094C428.365 702.359 429.467 699.32 431.67 696.977C433.889 694.617 436.639 693.438 439.92 693.438C443.201 693.438 445.74 694.492 447.537 696.602C449.334 698.711 450.232 701.641 450.232 705.391V707.477ZM444.982 703.633C444.967 701.68 444.506 700.164 443.599 699.086C442.693 697.992 441.443 697.445 439.849 697.445C438.287 697.445 436.959 698.016 435.865 699.156C434.787 700.297 434.123 701.789 433.873 703.633H444.982ZM473.642 718H468.368V714.25H468.275C466.618 717.125 464.189 718.562 460.986 718.562C458.626 718.562 456.775 717.922 455.431 716.641C454.103 715.359 453.439 713.664 453.439 711.555C453.439 707.023 456.048 704.383 461.267 703.633L468.392 702.625C468.392 699.203 466.767 697.492 463.517 697.492C460.657 697.492 458.079 698.477 455.782 700.445V695.688C458.314 694.188 461.236 693.438 464.548 693.438C470.611 693.438 473.642 696.422 473.642 702.391V718ZM468.392 706.211L463.353 706.914C461.79 707.117 460.611 707.5 459.814 708.062C459.032 708.609 458.642 709.578 458.642 710.969C458.642 711.984 459.001 712.82 459.72 713.477C460.454 714.117 461.431 714.438 462.65 714.438C464.306 714.438 465.673 713.859 466.751 712.703C467.845 711.531 468.392 710.062 468.392 708.297V706.211ZM492.762 717.742C491.7 718.273 490.301 718.539 488.567 718.539C483.911 718.539 481.583 716.305 481.583 711.836V698.266H477.575V694H481.583V688.445L487.02 686.898V694H492.762V698.266H487.02V710.266C487.02 711.688 487.278 712.703 487.794 713.312C488.309 713.922 489.169 714.227 490.372 714.227C491.294 714.227 492.09 713.961 492.762 713.43V717.742ZM507.617 718.562C503.914 718.562 500.953 717.445 498.734 715.211C496.531 712.961 495.43 709.984 495.43 706.281C495.43 702.25 496.578 699.102 498.875 696.836C501.188 694.57 504.297 693.438 508.203 693.438C511.953 693.438 514.875 694.539 516.969 696.742C519.063 698.945 520.109 702 520.109 705.906C520.109 709.734 518.977 712.805 516.711 715.117C514.461 717.414 511.43 718.562 507.617 718.562ZM507.875 697.773C505.75 697.773 504.07 698.516 502.836 700C501.602 701.484 500.984 703.531 500.984 706.141C500.984 708.656 501.609 710.641 502.859 712.094C504.109 713.531 505.781 714.25 507.875 714.25C510.016 714.25 511.656 713.539 512.797 712.117C513.953 710.695 514.531 708.672 514.531 706.047C514.531 703.406 513.953 701.367 512.797 699.93C511.656 698.492 510.016 697.773 507.875 697.773ZM539.394 699.18C538.738 698.664 537.792 698.406 536.558 698.406C534.949 698.406 533.605 699.133 532.527 700.586C531.449 702.039 530.91 704.016 530.91 706.516V718H525.472V694H530.91V698.945H531.003C531.535 697.258 532.347 695.945 533.441 695.008C534.55 694.055 535.785 693.578 537.144 693.578C538.128 693.578 538.878 693.727 539.394 694.023V699.18ZM583.682 718H578.08V703.422H562.26V718H556.682V684.391H562.26V698.523H578.08V684.391H583.682V718ZM612.107 718H606.67V714.203H606.576C604.998 717.109 602.545 718.562 599.216 718.562C593.545 718.562 590.709 715.156 590.709 708.344V694H596.146V707.781C596.146 712.094 597.81 714.25 601.138 714.25C602.748 714.25 604.068 713.656 605.099 712.469C606.146 711.281 606.67 709.727 606.67 707.805V694H612.107V718ZM624.548 714.531H624.454V718H619.017V682.469H624.454V698.219H624.548C626.407 695.031 629.126 693.438 632.704 693.438C635.735 693.438 638.103 694.516 639.806 696.672C641.524 698.812 642.384 701.688 642.384 705.297C642.384 709.312 641.423 712.531 639.501 714.953C637.579 717.359 634.954 718.562 631.626 718.562C628.501 718.562 626.142 717.219 624.548 714.531ZM624.407 704.992V707.969C624.407 709.719 624.962 711.203 626.071 712.422C627.196 713.641 628.618 714.25 630.337 714.25C632.353 714.25 633.931 713.469 635.071 711.906C636.228 710.328 636.806 708.133 636.806 705.32C636.806 702.961 636.267 701.117 635.188 699.789C634.126 698.445 632.681 697.773 630.853 697.773C628.915 697.773 627.353 698.461 626.165 699.836C624.993 701.211 624.407 702.93 624.407 704.992Z"
    fill="white" />
  <g filter="url(#filter0_d_11563_75528)">
    <path fillRule="evenodd" clip-rule="evenodd"
      d="M592.243 459.569L616.223 516.566C617.255 519.018 620.733 519.013 621.757 516.557L627.254 503.378L639.636 515.761C643.151 519.275 648.849 519.275 652.364 515.761C655.879 512.246 655.879 506.547 652.364 503.033L639.982 490.65L653.16 485.154C655.617 484.129 655.622 480.651 653.169 479.619L596.172 455.64C593.694 454.597 591.201 457.09 592.243 459.569Z"
      fill="#12131A" />
  </g>
  <path fillRule="evenodd" clip-rule="evenodd"
    d="M625.164 492.803L643.879 511.518C645.05 512.69 646.95 512.69 648.121 511.518C649.293 510.346 649.293 508.447 648.121 507.275L629.406 488.56L644.241 482.373L600.627 464.024L618.976 507.638L625.164 492.803ZM653.16 485.154C655.617 484.129 655.622 480.651 653.169 479.619L596.172 455.64C593.694 454.597 591.201 457.09 592.243 459.569L616.223 516.566C617.255 519.018 620.733 519.013 621.757 516.557L627.254 503.378L639.636 515.761C643.151 519.275 648.849 519.275 652.364 515.761C655.879 512.246 655.879 506.547 652.364 503.033L639.982 490.65L653.16 485.154Z"
    fill="white" />
  <defs>
    <filter id="filter0_d_11563_75528" x="589" y="453.896" width="69.0059" height="69.0059"
      filterUnits="userSpaceOnUse" color-interpolation-filters="sRGB">
      <feFlood flood-opacity="0" result="BackgroundImageFix" />
      <feColorMatrix in="SourceAlpha" type="matrix"
        values="0 0 0 0 0 0 0 0 0 0 0 0 0 0 0 0 0 0 127 0" result="hardAlpha" />
      <feOffset dy="1.5" />
      <feGaussianBlur stdDeviation="1.5" />
      <feComposite in2="hardAlpha" operator="out" />
      <feColorMatrix type="matrix"
        values="0 0 0 0 0.0705882 0 0 0 0 0.0745098 0 0 0 0 0.101961 0 0 0 0.25 0" />
      <feBlend mode="normal" in2="BackgroundImageFix" result="effect1_dropShadow_11563_75528" />
      <feBlend mode="normal" in="SourceGraphic" in2="effect1_dropShadow_11563_75528" result="shape" />
    </filter>
    <linearGradient id="paint0_linear_11563_75528" x1="512" y1="255.698" x2="337.698" y2="430"
      gradientUnits="userSpaceOnUse">
      <stop stop-color="#FF2D55" />
      <stop offset="1" stop-color="#FFBC5B" />
    </linearGradient>
    <linearGradient id="paint1_linear_11563_75528" x1="405.712" y1="398.336" x2="504.181"
      y2="552.629" gradientUnits="userSpaceOnUse">
      <stop stop-color="#A524B3" />
      <stop offset="1" stop-color="#FF2D55" />
    </linearGradient>
  </defs>
</svg>
  