<svg width="1024" height="1024" viewBox="0 0 1024 1024" fill="none"
  xmlns="http://www.w3.org/2000/svg">
  <path fillRule="evenodd" clip-rule="evenodd"
    d="M512 560.25C580.069 560.25 635.25 505.069 635.25 437C635.25 368.931 580.069 313.75 512 313.75C443.931 313.75 388.75 368.931 388.75 437C388.75 505.069 443.931 560.25 512 560.25Z"
    fill="url(#paint0_linear_11563_75523)" />
  <path fillRule="evenodd" clip-rule="evenodd"
    d="M577.528 422.499C588.684 422.499 597.728 413.455 597.728 402.299C597.728 391.142 588.684 382.099 577.528 382.099C566.372 382.099 557.328 391.142 557.328 402.299C557.328 413.455 566.372 422.499 577.528 422.499Z"
    fill="#FFC95B" />
  <path fillRule="evenodd" clip-rule="evenodd"
    d="M462.062 528.375C482.601 528.375 499.25 511.726 499.25 491.188C499.25 470.649 482.601 454 462.062 454C441.524 454 424.875 470.649 424.875 491.188C424.875 511.726 441.524 528.375 462.062 528.375Z"
    fill="#FFC95B" />
  <path fillRule="evenodd" clip-rule="evenodd"
    d="M469.562 486.299H624.61C620.79 495.111 615.921 503.369 610.252 510.949H469.5V486.299H469.562Z"
    fill="#FFBC5B" />
  <path fillRule="evenodd" clip-rule="evenodd"
    d="M554.423 486.299H399.375C403.196 495.111 408.064 503.369 413.734 510.949H554.485V486.299H554.423Z"
    fill="#FFBC5B" />
  <path fillRule="evenodd" clip-rule="evenodd"
    d="M438.049 535.601C458.632 551.068 484.268 560.251 511.999 560.251C539.73 560.251 565.366 551.068 585.949 535.601H438.049Z"
    fill="#FF2D55" />
  <path fillRule="evenodd" clip-rule="evenodd"
    d="M413.398 510.947C420.424 520.253 428.743 528.572 438.048 535.597H585.948C595.254 528.572 603.573 520.253 610.598 510.947H413.398Z"
    fill="#FC9965" />
  <path
    d="M410.277 412.405C407.777 408.488 408.926 403.285 412.844 400.784L423.485 393.993C425.444 392.743 428.045 393.318 429.295 395.277L431.756 399.132C433.81 398.717 436.341 395.223 438.688 393.437C444.131 389.296 445.884 382.256 445.899 382.185L481.368 359.548L536.23 359.477L540.758 366.571L510.092 386.141C499.514 397.131 500.306 404.866 500.306 404.866L569.499 505.464C572 509.382 569.043 518.437 565.125 520.937L556.625 525.187C552.707 527.688 543.624 527.491 541.123 523.573L481.368 417.875C481.368 417.875 473.524 405.559 458.875 409.375C454.676 410.468 447.193 417.381 445.144 420.11L447.405 423.652C448.655 425.611 448.08 428.213 446.121 429.463L435.48 436.254C431.563 438.754 426.36 437.605 423.859 433.687L410.277 412.405Z"
    fill="url(#paint1_linear_11563_75523)" />
  <path
    d="M418.504 407.375C416.004 403.457 417.153 398.254 421.07 395.754L431.711 388.963C433.67 387.713 436.272 388.287 437.522 390.246L439.245 392.946C439.689 393.642 440.52 394.005 441.313 393.773C443.026 393.272 444.889 392.418 446.743 391.007C451.239 387.586 453.335 380.414 453.936 377.981C454.067 377.452 454.385 376.989 454.844 376.696L489.104 354.831C489.424 354.627 489.797 354.518 490.177 354.517L543.359 354.448C544.043 354.447 544.68 354.796 545.048 355.372L547.908 359.855C548.503 360.786 548.229 362.022 547.298 362.616L518.519 380.983C518.386 381.068 518.26 381.172 518.151 381.286C509.318 390.538 508.551 397.452 508.52 399.328C508.515 399.663 508.632 399.98 508.822 400.257L577.726 500.434C580.226 504.352 576.662 513.592 572.744 516.092L565.65 520.619C561.732 523.12 551.85 522.461 549.35 518.543L487.403 413.674C487.301 413.503 487.179 413.351 487.026 413.224C485.485 411.938 476.094 404.75 462.727 408.231C459.079 409.181 456.254 411.589 454.232 413.995C453.696 414.633 453.668 415.545 454.116 416.248L455.631 418.622C456.881 420.581 456.307 423.182 454.348 424.433L443.707 431.224C439.789 433.724 434.586 432.575 432.086 428.657L418.504 407.375Z"
    fill="white" />
  <path
    d="M358.978 655V621.18H371.658C381.712 621.18 387.572 627.32 387.572 637.914V637.961C387.572 648.789 381.783 655 371.658 655H358.978ZM365.025 649.914H370.861C377.587 649.914 381.408 645.648 381.408 638.055V638.008C381.408 630.578 377.493 626.266 370.861 626.266H365.025V649.914ZM404.676 655.516C397.059 655.516 392.442 650.406 392.442 642.25V642.227C392.442 634.164 397.106 628.891 404.395 628.891C411.684 628.891 416.184 634 416.184 641.734V643.656H398.278C398.348 648.25 400.833 650.922 404.794 650.922C407.958 650.922 409.762 649.328 410.325 648.156L410.395 647.992H415.95L415.88 648.203C415.059 651.508 411.637 655.516 404.676 655.516ZM404.466 633.461C401.208 633.461 398.77 635.664 398.325 639.742H410.489C410.091 635.547 407.723 633.461 404.466 633.461ZM432.82 655.516C425.11 655.516 420.563 650.523 420.563 642.156V642.109C420.563 633.836 425.086 628.891 432.797 628.891C439.383 628.891 443.32 632.547 443.977 637.844V637.938H438.469L438.445 637.867C437.906 635.383 436.008 633.602 432.82 633.602C428.836 633.602 426.492 636.742 426.492 642.109V642.156C426.492 647.594 428.86 650.781 432.82 650.781C435.844 650.781 437.695 649.398 438.422 646.703L438.469 646.609L443.977 646.586L443.93 646.773C443.086 652.023 439.313 655.516 432.82 655.516ZM460.308 655.516C452.691 655.516 448.074 650.406 448.074 642.25V642.227C448.074 634.164 452.738 628.891 460.027 628.891C467.316 628.891 471.816 634 471.816 641.734V643.656H453.91C453.98 648.25 456.464 650.922 460.425 650.922C463.589 650.922 465.394 649.328 465.957 648.156L466.027 647.992H471.582L471.511 648.203C470.691 651.508 467.269 655.516 460.308 655.516ZM460.097 633.461C456.839 633.461 454.402 635.664 453.957 639.742H466.121C465.722 635.547 463.355 633.461 460.097 633.461ZM477.46 655V629.383H483.296V633.297H483.694C484.913 630.555 487.374 628.891 491.077 628.891C496.796 628.891 499.913 632.336 499.913 638.43V655H494.077V639.789C494.077 635.805 492.46 633.789 488.921 633.789C485.452 633.789 483.296 636.227 483.296 640.07V655H477.46ZM516.69 655.117C510.807 655.117 508.393 653.148 508.393 648.203V633.906H504.408V629.383H508.393V623.102H514.323V629.383H519.737V633.906H514.323V646.82C514.323 649.375 515.33 650.453 517.768 650.453C518.588 650.453 519.033 650.43 519.737 650.359V654.859C518.893 655.023 517.815 655.117 516.69 655.117ZM525.357 655V629.383H531.193V633.32H531.592C532.459 630.578 534.802 628.961 538.177 628.961C539.068 628.961 539.982 629.078 540.545 629.242V634.469C539.607 634.281 538.646 634.141 537.638 634.141C533.748 634.141 531.193 636.461 531.193 640.117V655H525.357ZM551.79 655.422C546.915 655.422 543.376 652.422 543.376 647.758V647.711C543.376 643.141 546.868 640.469 553.103 640.094L559.689 639.695V637.492C559.689 634.938 558.025 633.531 554.884 633.531C552.212 633.531 550.478 634.492 549.892 636.18L549.868 636.273H544.36L544.384 636.062C544.946 631.75 549.071 628.891 555.165 628.891C561.751 628.891 565.454 632.078 565.454 637.492V655H559.689V651.484H559.29C557.884 653.969 555.165 655.422 551.79 655.422ZM549.142 647.477C549.142 649.656 550.993 650.945 553.571 650.945C557.087 650.945 559.689 648.648 559.689 645.602V643.539L553.923 643.914C550.665 644.125 549.142 645.32 549.142 647.43V647.477ZM572.504 655V619.469H578.34V655H572.504ZM592.516 655.422C587.641 655.422 584.101 652.422 584.101 647.758V647.711C584.101 643.141 587.594 640.469 593.828 640.094L600.414 639.695V637.492C600.414 634.938 598.75 633.531 595.609 633.531C592.937 633.531 591.203 634.492 590.617 636.18L590.594 636.273H585.086L585.109 636.062C585.672 631.75 589.797 628.891 595.891 628.891C602.476 628.891 606.18 632.078 606.18 637.492V655H600.414V651.484H600.016C598.609 653.969 595.891 655.422 592.516 655.422ZM589.867 647.477C589.867 649.656 591.719 650.945 594.297 650.945C597.812 650.945 600.414 648.648 600.414 645.602V643.539L594.648 643.914C591.391 644.125 589.867 645.32 589.867 647.43V647.477ZM612.995 655V629.383H618.831V633.297H619.23C620.449 630.555 622.909 628.891 626.613 628.891C632.331 628.891 635.449 632.336 635.449 638.43V655H629.613V639.789C629.613 635.805 627.995 633.789 624.456 633.789C620.988 633.789 618.831 636.227 618.831 640.07V655H612.995ZM651.382 655.422C644.96 655.422 640.882 650.336 640.882 642.227V642.18C640.882 634.023 644.889 628.961 651.382 628.961C654.897 628.961 657.827 630.695 659.163 633.461H659.561V619.469H665.421V655H659.561V650.992H659.163C657.757 653.781 654.991 655.422 651.382 655.422ZM653.21 650.5C657.194 650.5 659.655 647.359 659.655 642.227V642.18C659.655 637.047 657.171 633.883 653.21 633.883C649.249 633.883 646.811 637.023 646.811 642.18V642.227C646.811 647.383 649.225 650.5 653.21 650.5ZM387.241 712.844C377.655 712.844 371.702 706.047 371.702 695.125V695.078C371.702 684.109 377.632 677.336 387.218 677.336C394.905 677.336 400.741 682.211 401.538 689.125V689.312H395.608L395.585 689.219C394.718 685.211 391.483 682.562 387.218 682.562C381.476 682.562 377.89 687.367 377.89 695.055V695.102C377.89 702.812 381.476 707.617 387.241 707.617C391.53 707.617 394.718 705.227 395.585 701.5L395.608 701.383H401.538V701.547C400.648 708.32 395.046 712.844 387.241 712.844ZM407.487 712V686.383H413.323V690.32H413.721C414.588 687.578 416.932 685.961 420.307 685.961C421.198 685.961 422.112 686.078 422.674 686.242V691.469C421.737 691.281 420.776 691.141 419.768 691.141C415.877 691.141 413.323 693.461 413.323 697.117V712H407.487ZM437.576 712.516C429.959 712.516 425.342 707.406 425.342 699.25V699.227C425.342 691.164 430.006 685.891 437.295 685.891C444.584 685.891 449.084 691 449.084 698.734V700.656H431.178C431.248 705.25 433.732 707.922 437.693 707.922C440.857 707.922 442.662 706.328 443.224 705.156L443.295 704.992H448.849L448.779 705.203C447.959 708.508 444.537 712.516 437.576 712.516ZM437.365 690.461C434.107 690.461 431.67 692.664 431.224 696.742H443.389C442.99 692.547 440.623 690.461 437.365 690.461ZM461.712 712.422C456.837 712.422 453.298 709.422 453.298 704.758V704.711C453.298 700.141 456.79 697.469 463.025 697.094L469.611 696.695V694.492C469.611 691.938 467.947 690.531 464.806 690.531C462.134 690.531 460.4 691.492 459.814 693.18L459.79 693.273H454.282L454.306 693.062C454.868 688.75 458.993 685.891 465.087 685.891C471.673 685.891 475.376 689.078 475.376 694.492V712H469.611V708.484H469.212C467.806 710.969 465.087 712.422 461.712 712.422ZM459.064 704.477C459.064 706.656 460.915 707.945 463.493 707.945C467.009 707.945 469.611 705.648 469.611 702.602V700.539L463.845 700.914C460.587 701.125 459.064 702.32 459.064 704.43V704.477ZM492.27 712.117C486.387 712.117 483.973 710.148 483.973 705.203V690.906H479.989V686.383H483.973V680.102H489.903V686.383H495.317V690.906H489.903V703.82C489.903 706.375 490.911 707.453 493.348 707.453C494.169 707.453 494.614 707.43 495.317 707.359V711.859C494.473 712.023 493.395 712.117 492.27 712.117ZM511.766 712.516C504.078 712.516 499.438 707.5 499.438 699.203V699.156C499.438 690.93 504.148 685.891 511.766 685.891C519.406 685.891 524.094 690.906 524.094 699.156V699.203C524.094 707.5 519.43 712.516 511.766 712.516ZM511.766 707.781C515.82 707.781 518.117 704.617 518.117 699.227V699.18C518.117 693.789 515.797 690.602 511.766 690.602C507.711 690.602 505.391 693.789 505.391 699.18V699.227C505.391 704.617 507.711 707.781 511.766 707.781ZM529.761 712V686.383H535.597V690.32H535.996C536.863 687.578 539.206 685.961 542.581 685.961C543.472 685.961 544.386 686.078 544.949 686.242V691.469C544.011 691.281 543.05 691.141 542.042 691.141C538.152 691.141 535.597 693.461 535.597 697.117V712H529.761ZM562.752 712V678.18H568.799V692.242H585.252V678.18H591.276V712H585.252V697.328H568.799V712H562.752ZM607.326 712.516C601.56 712.516 598.607 709.047 598.607 702.953V686.383H604.443V701.617C604.443 705.578 605.92 707.594 609.435 707.594C613.209 707.594 615.224 705.156 615.224 701.312V686.383H621.06V712H615.224V708.109H614.826C613.63 710.852 611.029 712.516 607.326 712.516ZM642.243 712.422C638.657 712.422 635.868 710.781 634.462 707.992H634.063V712H628.228V676.469H634.063V690.461H634.462C635.798 687.695 638.728 685.961 642.243 685.961C648.735 685.961 652.767 691.023 652.767 699.18V699.227C652.767 707.336 648.665 712.422 642.243 712.422ZM640.415 707.5C644.399 707.5 646.813 704.383 646.813 699.227V699.18C646.813 694.023 644.399 690.883 640.415 690.883C636.454 690.883 633.993 694.047 633.993 699.18V699.227C633.993 704.359 636.454 707.5 640.415 707.5Z"
    fill="white" />
  <g filter="url(#filter0_d_11563_75523)">
    <path fillRule="evenodd" clip-rule="evenodd"
      d="M592.243 459.569L616.223 516.566C617.255 519.018 620.733 519.013 621.757 516.557L627.254 503.378L639.636 515.761C643.151 519.275 648.849 519.275 652.364 515.761C655.879 512.246 655.879 506.547 652.364 503.033L639.982 490.65L653.16 485.154C655.617 484.129 655.622 480.651 653.169 479.619L596.172 455.64C593.694 454.597 591.201 457.09 592.243 459.569Z"
      fill="#12131A" />
  </g>
  <path fillRule="evenodd" clip-rule="evenodd"
    d="M625.164 492.803L643.879 511.518C645.05 512.69 646.95 512.69 648.121 511.518C649.293 510.346 649.293 508.447 648.121 507.275L629.406 488.56L644.241 482.373L600.627 464.024L618.976 507.638L625.164 492.803ZM653.16 485.154C655.617 484.129 655.622 480.651 653.169 479.619L596.172 455.64C593.694 454.597 591.201 457.09 592.243 459.569L616.223 516.566C617.255 519.018 620.733 519.013 621.757 516.557L627.254 503.378L639.636 515.761C643.151 519.275 648.849 519.275 652.364 515.761C655.879 512.246 655.879 506.547 652.364 503.033L639.982 490.65L653.16 485.154Z"
    fill="white" />
  <defs>
    <filter id="filter0_d_11563_75523" x="589" y="453.896" width="69.0059" height="69.0059"
      filterUnits="userSpaceOnUse" color-interpolation-filters="sRGB">
      <feFlood flood-opacity="0" result="BackgroundImageFix" />
      <feColorMatrix in="SourceAlpha" type="matrix"
        values="0 0 0 0 0 0 0 0 0 0 0 0 0 0 0 0 0 0 127 0" result="hardAlpha" />
      <feOffset dy="1.5" />
      <feGaussianBlur stdDeviation="1.5" />
      <feComposite in2="hardAlpha" operator="out" />
      <feColorMatrix type="matrix"
        values="0 0 0 0 0.0705882 0 0 0 0 0.0745098 0 0 0 0 0.101961 0 0 0 0.25 0" />
      <feBlend mode="normal" in2="BackgroundImageFix" result="effect1_dropShadow_11563_75523" />
      <feBlend mode="normal" in="SourceGraphic" in2="effect1_dropShadow_11563_75523" result="shape" />
    </filter>
    <linearGradient id="paint0_linear_11563_75523" x1="512" y1="262.698" x2="337.698" y2="437"
      gradientUnits="userSpaceOnUse">
      <stop stop-color="#FF2D55" />
      <stop offset="1" stop-color="#FFBC5B" />
    </linearGradient>
    <linearGradient id="paint1_linear_11563_75523" x1="405.712" y1="405.336" x2="504.181"
      y2="559.629" gradientUnits="userSpaceOnUse">
      <stop stop-color="#A524B3" />
      <stop offset="1" stop-color="#FF2D55" />
    </linearGradient>
  </defs>
</svg>
  