<svg width="1024" height="1024" viewBox="0 0 1024 1024" fill="none"
  xmlns="http://www.w3.org/2000/svg">

  <rect x="194" y="370" width="636" height="284" rx="14" fill="#2A2A2A" />
  <rect x="194" y="370" width="636" height="284" rx="14" stroke="#272727" stroke-width="4" />
  <rect x="195.539" y="464.003" width="632.922" height="128" fill="#14436A" />
  <path
    d="M251.359 430H245.562L242.078 424.234C241.818 423.797 241.568 423.406 241.328 423.062C241.089 422.719 240.844 422.427 240.594 422.188C240.354 421.938 240.099 421.75 239.828 421.625C239.568 421.49 239.281 421.422 238.969 421.422H237.609V430H232.562V407.594H240.562C246 407.594 248.719 409.625 248.719 413.688C248.719 414.469 248.599 415.193 248.359 415.859C248.12 416.516 247.781 417.109 247.344 417.641C246.906 418.172 246.375 418.63 245.75 419.016C245.135 419.401 244.448 419.703 243.688 419.922V419.984C244.021 420.089 244.344 420.26 244.656 420.5C244.969 420.729 245.271 421 245.562 421.312C245.854 421.625 246.13 421.964 246.391 422.328C246.661 422.682 246.906 423.031 247.125 423.375L251.359 430ZM237.609 411.375V417.609H239.797C240.88 417.609 241.75 417.297 242.406 416.672C243.073 416.036 243.406 415.25 243.406 414.312C243.406 412.354 242.234 411.375 239.891 411.375H237.609ZM266.419 423.406H255.981C256.148 425.729 257.612 426.891 260.372 426.891C262.132 426.891 263.679 426.474 265.013 425.641V429.203C263.533 429.995 261.612 430.391 259.247 430.391C256.664 430.391 254.658 429.677 253.231 428.25C251.804 426.812 251.091 424.812 251.091 422.25C251.091 419.594 251.862 417.49 253.403 415.938C254.945 414.385 256.841 413.609 259.091 413.609C261.424 413.609 263.226 414.302 264.497 415.688C265.778 417.073 266.419 418.953 266.419 421.328V423.406ZM261.841 420.375C261.841 418.083 260.914 416.938 259.059 416.938C258.268 416.938 257.58 417.266 256.997 417.922C256.424 418.578 256.075 419.396 255.95 420.375H261.841ZM281.353 429.422C280.239 430.068 278.629 430.391 276.525 430.391C274.067 430.391 272.077 429.646 270.556 428.156C269.036 426.667 268.275 424.745 268.275 422.391C268.275 419.672 269.088 417.531 270.713 415.969C272.348 414.396 274.53 413.609 277.26 413.609C279.145 413.609 280.51 413.859 281.353 414.359V418.547C280.322 417.776 279.171 417.391 277.9 417.391C276.484 417.391 275.359 417.807 274.525 418.641C273.702 419.464 273.291 420.604 273.291 422.062C273.291 423.479 273.687 424.594 274.478 425.406C275.27 426.208 276.359 426.609 277.744 426.609C278.973 426.609 280.176 426.224 281.353 425.453V429.422ZM298.85 423.406H288.413C288.58 425.729 290.043 426.891 292.804 426.891C294.564 426.891 296.111 426.474 297.444 425.641V429.203C295.965 429.995 294.043 430.391 291.679 430.391C289.095 430.391 287.09 429.677 285.663 428.25C284.236 426.812 283.522 424.812 283.522 422.25C283.522 419.594 284.293 417.49 285.835 415.938C287.376 414.385 289.272 413.609 291.522 413.609C293.856 413.609 295.658 414.302 296.929 415.688C298.21 417.073 298.85 418.953 298.85 421.328V423.406ZM294.272 420.375C294.272 418.083 293.345 416.938 291.491 416.938C290.699 416.938 290.012 417.266 289.429 417.922C288.856 418.578 288.507 419.396 288.382 420.375H294.272ZM317.113 430H312.191V421.109C312.191 418.63 311.306 417.391 309.535 417.391C308.681 417.391 307.978 417.719 307.425 418.375C306.873 419.031 306.597 419.865 306.597 420.875V430H301.66V414H306.597V416.531H306.66C307.837 414.583 309.55 413.609 311.8 413.609C315.342 413.609 317.113 415.807 317.113 420.203V430ZM330.579 429.812C329.85 430.198 328.751 430.391 327.282 430.391C323.803 430.391 322.063 428.583 322.063 424.969V417.641H319.469V414H322.063V410.547L326.985 409.141V414H330.579V417.641H326.985V424.109C326.985 425.776 327.646 426.609 328.969 426.609C329.49 426.609 330.027 426.458 330.579 426.156V429.812ZM342.448 430V407.594H350.385C358.344 407.594 362.323 411.234 362.323 418.516C362.323 422.005 361.234 424.792 359.057 426.875C356.89 428.958 354 430 350.385 430H342.448ZM347.495 411.703V425.906H349.995C352.182 425.906 353.896 425.25 355.135 423.938C356.385 422.625 357.01 420.839 357.01 418.578C357.01 416.443 356.39 414.766 355.151 413.547C353.922 412.318 352.193 411.703 349.963 411.703H347.495ZM373.054 430.391C370.387 430.391 368.288 429.646 366.757 428.156C365.236 426.656 364.476 424.625 364.476 422.062C364.476 419.417 365.268 417.349 366.851 415.859C368.434 414.359 370.575 413.609 373.273 413.609C375.929 413.609 378.012 414.359 379.523 415.859C381.033 417.349 381.788 419.323 381.788 421.781C381.788 424.438 381.007 426.536 379.445 428.078C377.893 429.62 375.762 430.391 373.054 430.391ZM373.179 417.391C372.012 417.391 371.106 417.792 370.46 418.594C369.815 419.396 369.492 420.531 369.492 422C369.492 425.073 370.731 426.609 373.21 426.609C375.575 426.609 376.757 425.031 376.757 421.875C376.757 418.885 375.565 417.391 373.179 417.391ZM408.036 414L403.426 430H398.239L395.879 420.625C395.723 420 395.634 419.318 395.614 418.578H395.52C395.447 419.391 395.343 420.052 395.207 420.562L392.676 430H387.551L383.036 414H388.067L390.27 424.438C390.374 424.927 390.452 425.521 390.504 426.219H390.598C390.65 425.49 390.744 424.875 390.879 424.375L393.629 414H398.332L400.801 424.438C400.864 424.698 400.937 425.302 401.02 426.25H401.129C401.181 425.646 401.265 425.042 401.379 424.438L403.457 414H408.036ZM425.72 430H420.798V421.109C420.798 418.63 419.913 417.391 418.142 417.391C417.288 417.391 416.585 417.719 416.033 418.375C415.48 419.031 415.204 419.865 415.204 420.875V430H410.267V414H415.204V416.531H415.267C416.444 414.583 418.158 413.609 420.408 413.609C423.949 413.609 425.72 415.807 425.72 420.203V430ZM434.451 430H429.514V406.312H434.451V430ZM446.105 430.391C443.438 430.391 441.339 429.646 439.808 428.156C438.287 426.656 437.527 424.625 437.527 422.062C437.527 419.417 438.318 417.349 439.902 415.859C441.485 414.359 443.625 413.609 446.323 413.609C448.98 413.609 451.063 414.359 452.573 415.859C454.084 417.349 454.839 419.323 454.839 421.781C454.839 424.438 454.058 426.536 452.495 428.078C450.943 429.62 448.813 430.391 446.105 430.391ZM446.23 417.391C445.063 417.391 444.157 417.792 443.511 418.594C442.865 419.396 442.542 420.531 442.542 422C442.542 425.073 443.782 426.609 446.261 426.609C448.625 426.609 449.808 425.031 449.808 421.875C449.808 418.885 448.615 417.391 446.23 417.391ZM470.914 430H466.242V427.703H466.18C465.107 429.495 463.518 430.391 461.414 430.391C459.862 430.391 458.638 429.953 457.742 429.078C456.857 428.193 456.414 427.016 456.414 425.547C456.414 422.443 458.253 420.651 461.93 420.172L466.273 419.594C466.273 417.844 465.326 416.969 463.43 416.969C461.523 416.969 459.711 417.536 457.992 418.672V414.953C458.68 414.599 459.617 414.286 460.805 414.016C462.003 413.745 463.091 413.609 464.07 413.609C468.633 413.609 470.914 415.885 470.914 420.438V430ZM466.273 423.5V422.422L463.367 422.797C461.763 423.005 460.961 423.729 460.961 424.969C460.961 425.531 461.154 425.995 461.539 426.359C461.935 426.714 462.466 426.891 463.133 426.891C464.06 426.891 464.815 426.573 465.398 425.938C465.982 425.292 466.273 424.479 466.273 423.5ZM490.349 430H485.411V427.797H485.349C484.224 429.526 482.573 430.391 480.395 430.391C478.395 430.391 476.786 429.688 475.567 428.281C474.349 426.865 473.739 424.891 473.739 422.359C473.739 419.714 474.411 417.594 475.755 416C477.099 414.406 478.859 413.609 481.036 413.609C483.099 413.609 484.536 414.349 485.349 415.828H485.411V406.312H490.349V430ZM485.505 422.219V421.016C485.505 419.974 485.203 419.109 484.599 418.422C483.994 417.734 483.208 417.391 482.239 417.391C481.145 417.391 480.291 417.823 479.677 418.688C479.062 419.542 478.755 420.719 478.755 422.219C478.755 423.625 479.052 424.708 479.645 425.469C480.239 426.229 481.062 426.609 482.114 426.609C483.114 426.609 483.927 426.208 484.552 425.406C485.187 424.604 485.505 423.542 485.505 422.219ZM493.33 429.578V425.578C494.142 426.068 494.95 426.432 495.752 426.672C496.564 426.911 497.33 427.031 498.049 427.031C498.924 427.031 499.611 426.911 500.111 426.672C500.622 426.432 500.877 426.068 500.877 425.578C500.877 425.266 500.762 425.005 500.533 424.797C500.304 424.589 500.007 424.406 499.642 424.25C499.288 424.094 498.898 423.953 498.471 423.828C498.044 423.703 497.632 423.562 497.236 423.406C496.601 423.167 496.038 422.911 495.549 422.641C495.07 422.359 494.663 422.036 494.33 421.672C494.007 421.307 493.757 420.885 493.58 420.406C493.413 419.927 493.33 419.359 493.33 418.703C493.33 417.807 493.523 417.036 493.908 416.391C494.304 415.745 494.825 415.219 495.471 414.812C496.127 414.396 496.872 414.094 497.705 413.906C498.549 413.708 499.424 413.609 500.33 413.609C501.038 413.609 501.757 413.667 502.486 413.781C503.215 413.885 503.934 414.042 504.642 414.25V418.062C504.017 417.698 503.346 417.427 502.627 417.25C501.919 417.062 501.221 416.969 500.533 416.969C500.21 416.969 499.903 417 499.611 417.062C499.33 417.115 499.08 417.198 498.861 417.312C498.642 417.417 498.471 417.557 498.346 417.734C498.221 417.901 498.158 418.094 498.158 418.312C498.158 418.604 498.252 418.854 498.439 419.062C498.627 419.271 498.872 419.453 499.174 419.609C499.476 419.755 499.809 419.891 500.174 420.016C500.549 420.13 500.919 420.25 501.283 420.375C501.939 420.604 502.533 420.854 503.064 421.125C503.596 421.396 504.049 421.714 504.424 422.078C504.809 422.443 505.101 422.87 505.299 423.359C505.507 423.849 505.611 424.432 505.611 425.109C505.611 426.057 505.403 426.87 504.986 427.547C504.58 428.214 504.033 428.76 503.346 429.188C502.669 429.604 501.882 429.906 500.986 430.094C500.101 430.292 499.179 430.391 498.221 430.391C496.46 430.391 494.83 430.12 493.33 429.578ZM510.546 418.953C509.733 418.953 509.056 418.708 508.514 418.219C507.973 417.719 507.702 417.104 507.702 416.375C507.702 415.625 507.978 415.01 508.53 414.531C509.093 414.052 509.791 413.812 510.624 413.812C511.468 413.812 512.155 414.057 512.686 414.547C513.228 415.026 513.499 415.635 513.499 416.375C513.499 417.135 513.223 417.755 512.671 418.234C512.129 418.714 511.421 418.953 510.546 418.953ZM510.546 430.391C509.733 430.391 509.056 430.141 508.514 429.641C507.973 429.141 507.702 428.526 507.702 427.797C507.702 427.047 507.978 426.432 508.53 425.953C509.093 425.474 509.791 425.234 510.624 425.234C511.468 425.234 512.155 425.479 512.686 425.969C513.228 426.448 513.499 427.057 513.499 427.797C513.499 428.557 513.223 429.182 512.671 429.672C512.129 430.151 511.421 430.391 510.546 430.391Z"
    fill="#EBEBF5" />
  <path fillRule="evenodd" clip-rule="evenodd"
    d="M276 560.628C294.018 560.628 308.625 546.021 308.625 528.003C308.625 509.985 294.018 495.378 276 495.378C257.982 495.378 243.375 509.985 243.375 528.003C243.375 546.021 257.982 560.628 276 560.628Z"
    fill="url(#paint0_linear_11563_75539)" />
  <path fillRule="evenodd" clip-rule="evenodd"
    d="M293.346 524.165C296.299 524.165 298.693 521.771 298.693 518.818C298.693 515.865 296.299 513.471 293.346 513.471C290.393 513.471 287.999 515.865 287.999 518.818C287.999 521.771 290.393 524.165 293.346 524.165Z"
    fill="#FFC95B" />
  <path fillRule="evenodd" clip-rule="evenodd"
    d="M262.781 552.19C268.218 552.19 272.625 547.783 272.625 542.347C272.625 536.91 268.218 532.503 262.781 532.503C257.345 532.503 252.938 536.91 252.938 542.347C252.938 547.783 257.345 552.19 262.781 552.19Z"
    fill="#FFC95B" />
  <path fillRule="evenodd" clip-rule="evenodd"
    d="M264.766 541.053H305.809C304.797 543.385 303.509 545.571 302.008 547.578H264.75V541.053H264.766Z"
    fill="#FFBC5B" />
  <path fillRule="evenodd" clip-rule="evenodd"
    d="M287.23 541.053H246.188C247.199 543.385 248.488 545.571 249.988 547.578H287.246V541.053H287.23Z"
    fill="#FFBC5B" />
  <path fillRule="evenodd" clip-rule="evenodd"
    d="M256.425 554.104C261.873 558.198 268.659 560.629 276 560.629C283.34 560.629 290.126 558.198 295.575 554.104H256.425Z"
    fill="#FF2D55" />
  <path fillRule="evenodd" clip-rule="evenodd"
    d="M249.899 547.577C251.759 550.04 253.961 552.243 256.424 554.102H295.574C298.038 552.243 300.24 550.04 302.099 547.577H249.899Z"
    fill="#FC9965" />
  <path
    d="M249.073 521.492C248.412 520.455 248.716 519.078 249.753 518.416L252.57 516.618C253.088 516.287 253.777 516.439 254.108 516.958L254.759 517.979C255.303 517.869 255.973 516.944 256.594 516.471C258.035 515.375 258.499 513.511 258.503 513.493L267.892 507.5L282.414 507.482L283.612 509.359L275.495 514.54C272.695 517.449 272.905 519.496 272.905 519.496L291.22 546.125C291.882 547.162 291.1 549.559 290.062 550.221L287.813 551.346C286.775 552.008 284.371 551.956 283.709 550.919L267.892 522.94C267.892 522.94 265.815 519.68 261.938 520.69C260.826 520.979 258.845 522.809 258.303 523.531L258.901 524.469C259.232 524.988 259.08 525.676 258.562 526.007L255.745 527.805C254.708 528.467 253.33 528.163 252.669 527.125L249.073 521.492Z"
    fill="url(#paint1_linear_11563_75539)" />
  <path
    d="M251.251 520.161C250.589 519.124 250.893 517.747 251.931 517.085L254.747 515.287C255.266 514.956 255.954 515.108 256.285 515.627C256.678 516.242 257.427 516.582 258.074 516.244C258.289 516.131 258.508 515.994 258.726 515.828C259.647 515.128 260.187 513.833 260.459 512.984C260.625 512.465 260.94 511.996 261.4 511.702L269.578 506.483C269.899 506.278 270.271 506.169 270.652 506.169L283.802 506.152C284.294 506.151 284.752 506.401 285.016 506.816C285.444 507.486 285.247 508.375 284.578 508.802L277.873 513.081C277.74 513.166 277.616 513.267 277.508 513.383C275.675 515.348 275.219 516.899 275.111 517.657C275.063 517.989 275.182 518.31 275.372 518.586L293.398 544.794C294.06 545.831 293.116 548.277 292.079 548.939L290.202 550.137C289.165 550.799 286.549 550.625 285.887 549.588L269.601 522.019C269.5 521.847 269.376 521.692 269.216 521.573C268.497 521.031 266.157 519.554 262.957 520.388C262.269 520.567 261.691 520.942 261.222 521.374C260.73 521.827 260.719 522.574 261.079 523.138C261.41 523.657 261.258 524.345 260.739 524.676L257.923 526.474C256.885 527.136 255.508 526.832 254.846 525.794L251.251 520.161Z"
    fill="white" />
  <path
    d="M354.391 540.565C352.703 541.44 350.604 541.878 348.094 541.878C344.844 541.878 342.24 540.852 340.281 538.8C338.323 536.748 337.344 534.055 337.344 530.722C337.344 527.138 338.443 524.243 340.641 522.034C342.849 519.826 345.635 518.722 349 518.722C351.167 518.722 352.964 519.029 354.391 519.644V523.331C352.88 522.435 351.214 521.987 349.391 521.987C346.964 521.987 344.995 522.763 343.484 524.315C341.984 525.868 341.234 527.94 341.234 530.534C341.234 533.003 341.938 534.972 343.344 536.44C344.75 537.899 346.599 538.628 348.891 538.628C351.005 538.628 352.839 538.128 354.391 537.128V540.565ZM367.388 528.956C366.95 528.612 366.32 528.44 365.497 528.44C364.424 528.44 363.528 528.925 362.809 529.894C362.091 530.862 361.731 532.18 361.731 533.847V541.503H358.106V525.503H361.731V528.8H361.794C362.148 527.675 362.69 526.8 363.419 526.175C364.158 525.539 364.981 525.222 365.888 525.222C366.544 525.222 367.044 525.321 367.388 525.519V528.956ZM383.088 534.487H372.181C372.223 535.966 372.676 537.107 373.541 537.909C374.416 538.711 375.614 539.112 377.135 539.112C378.843 539.112 380.411 538.602 381.838 537.581V540.503C380.379 541.42 378.452 541.878 376.056 541.878C373.702 541.878 371.853 541.154 370.51 539.706C369.176 538.248 368.51 536.201 368.51 533.565C368.51 531.076 369.244 529.05 370.713 527.487C372.192 525.914 374.025 525.128 376.213 525.128C378.4 525.128 380.093 525.831 381.291 527.237C382.489 528.644 383.088 530.597 383.088 533.097V534.487ZM379.588 531.925C379.577 530.623 379.27 529.612 378.666 528.894C378.062 528.164 377.228 527.8 376.166 527.8C375.124 527.8 374.239 528.18 373.51 528.94C372.791 529.701 372.348 530.696 372.181 531.925H379.588ZM398.694 541.503H395.179V539.003H395.116C394.012 540.92 392.392 541.878 390.257 541.878C388.684 541.878 387.449 541.451 386.554 540.597C385.668 539.743 385.225 538.612 385.225 537.206C385.225 534.185 386.965 532.425 390.444 531.925L395.194 531.253C395.194 528.972 394.111 527.831 391.944 527.831C390.038 527.831 388.319 528.487 386.788 529.8V526.628C388.475 525.628 390.423 525.128 392.632 525.128C396.673 525.128 398.694 527.118 398.694 531.097V541.503ZM395.194 533.644L391.835 534.112C390.793 534.248 390.007 534.503 389.475 534.878C388.955 535.243 388.694 535.888 388.694 536.815C388.694 537.493 388.934 538.05 389.413 538.487C389.902 538.914 390.554 539.128 391.366 539.128C392.47 539.128 393.382 538.743 394.1 537.972C394.83 537.19 395.194 536.211 395.194 535.034V533.644ZM411.441 541.331C410.733 541.685 409.8 541.862 408.644 541.862C405.54 541.862 403.988 540.373 403.988 537.394V528.347H401.316V525.503H403.988V521.8L407.613 520.769V525.503H411.441V528.347H407.613V536.347C407.613 537.295 407.785 537.972 408.129 538.378C408.472 538.784 409.045 538.987 409.847 538.987C410.462 538.987 410.993 538.81 411.441 538.456V541.331ZM421.344 541.878C418.876 541.878 416.902 541.133 415.423 539.644C413.954 538.144 413.219 536.159 413.219 533.69C413.219 531.003 413.985 528.904 415.516 527.394C417.058 525.883 419.131 525.128 421.735 525.128C424.235 525.128 426.183 525.862 427.579 527.331C428.975 528.8 429.673 530.836 429.673 533.44C429.673 535.993 428.917 538.039 427.407 539.581C425.907 541.112 423.886 541.878 421.344 541.878ZM421.516 528.019C420.1 528.019 418.98 528.513 418.157 529.503C417.334 530.493 416.923 531.857 416.923 533.597C416.923 535.274 417.339 536.597 418.173 537.565C419.006 538.524 420.12 539.003 421.516 539.003C422.943 539.003 424.037 538.529 424.798 537.581C425.568 536.633 425.954 535.284 425.954 533.534C425.954 531.774 425.568 530.414 424.798 529.456C424.037 528.498 422.943 528.019 421.516 528.019ZM442.529 528.956C442.091 528.612 441.461 528.44 440.638 528.44C439.565 528.44 438.67 528.925 437.951 529.894C437.232 530.862 436.873 532.18 436.873 533.847V541.503H433.248V525.503H436.873V528.8H436.935C437.289 527.675 437.831 526.8 438.56 526.175C439.3 525.539 440.123 525.222 441.029 525.222C441.685 525.222 442.185 525.321 442.529 525.519V528.956ZM463.37 541.503H459.635V531.784H449.088V541.503H445.37V519.097H449.088V528.519H459.635V519.097H463.37V541.503ZM482.32 541.503H478.695V538.972H478.632C477.58 540.909 475.945 541.878 473.726 541.878C469.945 541.878 468.054 539.607 468.054 535.065V525.503H471.679V534.69C471.679 537.565 472.788 539.003 475.007 539.003C476.08 539.003 476.96 538.607 477.648 537.815C478.346 537.024 478.695 535.987 478.695 534.706V525.503H482.32V541.503ZM490.614 539.19H490.551V541.503H486.926V517.815H490.551V528.315H490.614C491.853 526.19 493.666 525.128 496.051 525.128C498.072 525.128 499.65 525.847 500.786 527.284C501.931 528.711 502.504 530.628 502.504 533.034C502.504 535.711 501.864 537.857 500.582 539.472C499.301 541.076 497.551 541.878 495.332 541.878C493.249 541.878 491.676 540.982 490.614 539.19ZM490.52 532.831V534.815C490.52 535.982 490.89 536.972 491.629 537.784C492.379 538.597 493.327 539.003 494.473 539.003C495.817 539.003 496.869 538.482 497.629 537.44C498.4 536.388 498.786 534.925 498.786 533.05C498.786 531.477 498.426 530.248 497.707 529.362C496.999 528.466 496.036 528.019 494.817 528.019C493.525 528.019 492.483 528.477 491.692 529.394C490.911 530.31 490.52 531.456 490.52 532.831ZM507.579 541.847C506.954 541.847 506.423 541.644 505.986 541.237C505.548 540.821 505.329 540.326 505.329 539.753C505.329 539.17 505.548 538.67 505.986 538.253C506.423 537.836 506.954 537.628 507.579 537.628C508.215 537.628 508.751 537.836 509.189 538.253C509.637 538.67 509.861 539.17 509.861 539.753C509.861 540.326 509.637 540.821 509.189 541.237C508.751 541.644 508.215 541.847 507.579 541.847ZM527.217 534.487H516.311C516.352 535.966 516.806 537.107 517.67 537.909C518.545 538.711 519.743 539.112 521.264 539.112C522.972 539.112 524.54 538.602 525.967 537.581V540.503C524.509 541.42 522.582 541.878 520.186 541.878C517.832 541.878 515.983 541.154 514.639 539.706C513.306 538.248 512.639 536.201 512.639 533.565C512.639 531.076 513.373 529.05 514.842 527.487C516.321 525.914 518.154 525.128 520.342 525.128C522.529 525.128 524.222 525.831 525.42 527.237C526.618 528.644 527.217 530.597 527.217 533.097V534.487ZM523.717 531.925C523.707 530.623 523.399 529.612 522.795 528.894C522.191 528.164 521.358 527.8 520.295 527.8C519.253 527.8 518.368 528.18 517.639 528.94C516.92 529.701 516.477 530.696 516.311 531.925H523.717ZM543.917 525.503L538.589 533.597L543.855 541.503H539.652L536.839 536.55C536.662 536.248 536.454 535.862 536.214 535.394H536.152C536.11 535.487 535.891 535.873 535.495 536.55L532.636 541.503H528.448L533.886 533.659L528.73 525.503H532.948L535.714 530.706C535.922 531.091 536.125 531.487 536.323 531.894H536.37L539.948 525.503H543.917ZM559.586 534.487H548.68C548.721 535.966 549.175 537.107 550.039 537.909C550.914 538.711 552.112 539.112 553.633 539.112C555.341 539.112 556.909 538.602 558.336 537.581V540.503C556.878 541.42 554.951 541.878 552.555 541.878C550.201 541.878 548.352 541.154 547.008 539.706C545.675 538.248 545.008 536.201 545.008 533.565C545.008 531.076 545.742 529.05 547.211 527.487C548.69 525.914 550.523 525.128 552.711 525.128C554.898 525.128 556.591 525.831 557.789 527.237C558.987 528.644 559.586 530.597 559.586 533.097V534.487ZM556.086 531.925C556.076 530.623 555.768 529.612 555.164 528.894C554.56 528.164 553.727 527.8 552.664 527.8C551.622 527.8 550.737 528.18 550.008 528.94C549.289 529.701 548.846 530.696 548.68 531.925H556.086Z"
    fill="white" />
  <g filter="url(#filter0_d_11563_75539)">
    <path fillRule="evenodd" clip-rule="evenodd"
      d="M532.703 572.98L552.686 620.477C553.546 622.521 556.444 622.517 557.298 620.47L561.878 609.488L572.197 619.806C575.126 622.735 579.875 622.735 582.803 619.806C585.732 616.877 585.732 612.129 582.803 609.2L572.485 598.881L583.467 594.3C585.514 593.447 585.518 590.549 583.474 589.689L535.977 569.706C533.911 568.837 531.834 570.914 532.703 572.98Z"
      fill="#12131A" />
  </g>
  <path fillRule="evenodd" clip-rule="evenodd"
    d="M560.137 600.675L575.732 616.271C576.709 617.247 578.292 617.247 579.268 616.271C580.244 615.295 580.244 613.712 579.268 612.735L563.672 597.14L576.034 591.983L539.689 576.692L554.98 613.037L560.137 600.675ZM583.467 594.3C585.514 593.447 585.518 590.549 583.474 589.689L535.977 569.706C533.911 568.837 531.834 570.914 532.703 572.98L552.686 620.477C553.546 622.521 556.444 622.517 557.298 620.47L561.878 609.488L572.197 619.806C575.126 622.735 579.875 622.735 582.803 619.806C585.732 616.877 585.732 612.129 582.803 609.2L572.485 598.881L583.467 594.3Z"
    fill="white" />
  <defs>
    <filter id="filter0_d_11563_75539" x="529.5" y="568.003" width="58.5049" height="58.5049"
      filterUnits="userSpaceOnUse" color-interpolation-filters="sRGB">
      <feFlood flood-opacity="0" result="BackgroundImageFix" />
      <feColorMatrix in="SourceAlpha" type="matrix"
        values="0 0 0 0 0 0 0 0 0 0 0 0 0 0 0 0 0 0 127 0" result="hardAlpha" />
      <feOffset dy="1.5" />
      <feGaussianBlur stdDeviation="1.5" />
      <feComposite in2="hardAlpha" operator="out" />
      <feColorMatrix type="matrix"
        values="0 0 0 0 0.0705882 0 0 0 0 0.0745098 0 0 0 0 0.101961 0 0 0 0.25 0" />
      <feBlend mode="normal" in2="BackgroundImageFix" result="effect1_dropShadow_11563_75539" />
      <feBlend mode="normal" in="SourceGraphic" in2="effect1_dropShadow_11563_75539" result="shape" />
    </filter>
    <linearGradient id="paint0_linear_11563_75539" x1="276" y1="481.864" x2="229.861" y2="528.003"
      gradientUnits="userSpaceOnUse">
      <stop stop-color="#FF2D55" />
      <stop offset="1" stop-color="#FFBC5B" />
    </linearGradient>
    <linearGradient id="paint1_linear_11563_75539" x1="247.865" y1="519.621" x2="273.93"
      y2="560.463" gradientUnits="userSpaceOnUse">
      <stop stop-color="#A524B3" />
      <stop offset="1" stop-color="#FF2D55" />
    </linearGradient>
  </defs>
</svg>
  