<svg width="1024" height="1024" viewBox="0 0 1024 1024" fill="none"
  xmlns="http://www.w3.org/2000/svg">
  <g filter="url(#filter0_dd_11563_75516)">
    <rect x="192" y="368" width="640" height="288" rx="16" fill="#2A2A2A" />
    <rect x="193" y="369" width="638" height="286" rx="15" stroke="#888888" stroke-opacity="0.35"
      stroke-width="2" />
    <rect x="194.281" y="464.003" width="635.438" height="128" fill="#14436A" />
    <path
      d="M232.734 427V404.453H242.125C247.25 404.453 250.188 407.188 250.188 411.625V411.656C250.188 414.547 248.688 417.031 246.109 418.047L250.859 427H245.516L241.312 418.75H237.453V427H232.734ZM237.453 415.312H241.609C243.969 415.312 245.359 413.969 245.359 411.75V411.719C245.359 409.547 243.906 408.141 241.547 408.141H237.453V415.312ZM261.372 427.359C256.138 427.359 252.966 423.938 252.966 418.422V418.406C252.966 412.938 256.169 409.422 261.184 409.422C266.2 409.422 269.325 412.859 269.325 418.062V419.484H257.481C257.528 422.312 259.044 423.953 261.466 423.953C263.466 423.953 264.575 422.891 264.888 422.234L264.934 422.141H269.184L269.153 422.297C268.622 424.453 266.403 427.359 261.372 427.359ZM261.263 412.844C259.278 412.844 257.809 414.188 257.528 416.625H264.95C264.669 414.125 263.247 412.844 261.263 412.844ZM280.51 427.359C275.135 427.359 272.088 424.094 272.088 418.375V418.344C272.088 412.688 275.119 409.422 280.51 409.422C285.072 409.422 287.775 411.906 288.181 415.75V415.797H283.931L283.916 415.766C283.619 414.094 282.478 413 280.525 413C278.072 413 276.728 414.906 276.728 418.344V418.375C276.728 421.859 278.088 423.781 280.525 423.781C282.4 423.781 283.51 422.891 283.916 421.172L283.947 421.109H288.166L288.15 421.203C287.681 424.953 284.994 427.359 280.51 427.359ZM299.179 427.359C293.944 427.359 290.772 423.938 290.772 418.422V418.406C290.772 412.938 293.975 409.422 298.991 409.422C304.007 409.422 307.132 412.859 307.132 418.062V419.484H295.288C295.335 422.312 296.85 423.953 299.272 423.953C301.272 423.953 302.382 422.891 302.694 422.234L302.741 422.141H306.991L306.96 422.297C306.429 424.453 304.21 427.359 299.179 427.359ZM299.069 412.844C297.085 412.844 295.616 414.188 295.335 416.625H302.757C302.475 414.125 301.054 412.844 299.069 412.844ZM310.738 427V409.797H315.3V412.453H315.582C316.363 410.594 318.066 409.422 320.519 409.422C324.347 409.422 326.41 411.766 326.41 415.875V427H321.847V416.906C321.847 414.484 320.847 413.203 318.691 413.203C316.582 413.203 315.3 414.719 315.3 417.047V427H310.738ZM337.844 427.062C333.657 427.062 331.969 425.703 331.969 422.359V413.234H329.313V409.797H331.969V405.688H336.579V409.797H340.126V413.234H336.579V421.312C336.579 422.859 337.235 423.547 338.782 423.547C339.376 423.547 339.688 423.516 340.126 423.469V426.859C339.563 426.969 338.719 427.062 337.844 427.062ZM352.37 427V404.453H361.245C367.948 404.453 371.823 408.5 371.823 415.562V415.594C371.823 422.875 367.995 427 361.245 427H352.37ZM357.088 423.109H360.495C364.666 423.109 367.01 420.484 367.01 415.672V415.641C367.01 411 364.588 408.344 360.495 408.344H357.088V423.109ZM383.367 427.359C378.07 427.359 374.882 424 374.882 418.406V418.375C374.882 412.828 378.117 409.422 383.367 409.422C388.617 409.422 391.851 412.812 391.851 418.375V418.406C391.851 424.016 388.663 427.359 383.367 427.359ZM383.367 423.781C385.788 423.781 387.179 421.797 387.179 418.406V418.375C387.179 415.016 385.773 413 383.367 413C380.945 413 379.554 415.016 379.554 418.375V418.406C379.554 421.797 380.929 423.781 383.367 423.781ZM397.989 427L393.395 409.797H398.004L400.567 422.25H400.848L403.864 409.797H408.207L411.239 422.25H411.52L414.082 409.797H418.598L414.02 427H409.176L406.098 415H405.817L402.77 427H397.989ZM421.72 427V409.797H426.283V412.453H426.564C427.345 410.594 429.048 409.422 431.501 409.422C435.329 409.422 437.392 411.766 437.392 415.875V427H432.829V416.906C432.829 414.484 431.829 413.203 429.673 413.203C427.564 413.203 426.283 414.719 426.283 417.047V427H421.72ZM441.842 427V403.219H446.404V427H441.842ZM458.636 427.359C453.339 427.359 450.152 424 450.152 418.406V418.375C450.152 412.828 453.386 409.422 458.636 409.422C463.886 409.422 467.12 412.812 467.12 418.375V418.406C467.12 424.016 463.933 427.359 458.636 427.359ZM458.636 423.781C461.058 423.781 462.448 421.797 462.448 418.406V418.375C462.448 415.016 461.042 413 458.636 413C456.214 413 454.823 415.016 454.823 418.375V418.406C454.823 421.797 456.198 423.781 458.636 423.781ZM475.398 427.266C472.117 427.266 469.789 425.234 469.789 422.109V422.078C469.789 418.984 472.18 417.172 476.461 416.922L480.617 416.672V415.25C480.617 413.766 479.602 412.922 477.727 412.922C476.086 412.922 475.039 413.5 474.68 414.516L474.648 414.578H470.43L470.445 414.438C470.805 411.422 473.648 409.422 477.977 409.422C482.539 409.422 485.117 411.578 485.117 415.25V427H480.617V424.719H480.336C479.461 426.312 477.648 427.266 475.398 427.266ZM474.242 421.828C474.242 423.141 475.352 423.938 476.93 423.938C479.039 423.938 480.617 422.547 480.617 420.734V419.469L477.148 419.688C475.195 419.812 474.242 420.547 474.242 421.797V421.828ZM495.599 427.266C491.302 427.266 488.614 423.906 488.614 418.406V418.375C488.614 412.844 491.239 409.516 495.599 409.516C497.958 409.516 499.88 410.672 500.739 412.547H501.021V403.219H505.583V427H501.021V424.328H500.739C499.849 426.188 498.021 427.266 495.599 427.266ZM497.146 423.484C499.567 423.484 501.067 421.578 501.067 418.422V418.391C501.067 415.234 499.552 413.297 497.146 413.297C494.739 413.297 493.255 415.234 493.255 418.375V418.406C493.255 421.578 494.739 423.484 497.146 423.484ZM517.017 427.359C512.346 427.359 509.689 425.266 509.361 422.312L509.346 422.25H513.83L513.861 422.312C514.221 423.375 515.267 424.141 517.064 424.141C518.814 424.141 520.002 423.391 520.002 422.25V422.219C520.002 421.297 519.314 420.719 517.564 420.328L514.689 419.719C511.408 419.016 509.783 417.406 509.783 414.828V414.812C509.783 411.578 512.658 409.422 516.955 409.422C521.471 409.422 523.971 411.672 524.158 414.438V414.5H519.924L519.908 414.422C519.658 413.5 518.642 412.641 516.939 412.641C515.361 412.641 514.236 413.375 514.236 414.531V414.547C514.236 415.469 514.877 416 516.658 416.391L519.517 417C522.955 417.734 524.564 419.172 524.564 421.719V421.734C524.564 425.141 521.424 427.359 517.017 427.359ZM531.452 416.078C529.858 416.078 528.702 414.906 528.702 413.359C528.702 411.812 529.858 410.656 531.452 410.656C533.061 410.656 534.202 411.812 534.202 413.359C534.202 414.906 533.061 416.078 531.452 416.078ZM531.452 427.391C529.858 427.391 528.702 426.219 528.702 424.672C528.702 423.125 529.858 421.969 531.452 421.969C533.061 421.969 534.202 423.125 534.202 424.672C534.202 426.219 533.061 427.391 531.452 427.391Z"
      fill="#EBEBF5" />
    <path fillRule="evenodd" clip-rule="evenodd"
      d="M276 560.628C294.018 560.628 308.625 546.021 308.625 528.003C308.625 509.985 294.018 495.378 276 495.378C257.982 495.378 243.375 509.985 243.375 528.003C243.375 546.021 257.982 560.628 276 560.628Z"
      fill="url(#paint0_linear_11563_75516)" />
    <path fillRule="evenodd" clip-rule="evenodd"
      d="M293.346 524.165C296.299 524.165 298.693 521.771 298.693 518.818C298.693 515.865 296.299 513.471 293.346 513.471C290.393 513.471 287.999 515.865 287.999 518.818C287.999 521.771 290.393 524.165 293.346 524.165Z"
      fill="#FFC95B" />
    <path fillRule="evenodd" clip-rule="evenodd"
      d="M262.781 552.19C268.218 552.19 272.625 547.783 272.625 542.347C272.625 536.91 268.218 532.503 262.781 532.503C257.345 532.503 252.938 536.91 252.938 542.347C252.938 547.783 257.345 552.19 262.781 552.19Z"
      fill="#FFC95B" />
    <path fillRule="evenodd" clip-rule="evenodd"
      d="M264.766 541.053H305.809C304.797 543.385 303.509 545.571 302.008 547.578H264.75V541.053H264.766Z"
      fill="#FFBC5B" />
    <path fillRule="evenodd" clip-rule="evenodd"
      d="M287.23 541.053H246.188C247.199 543.385 248.488 545.571 249.988 547.578H287.246V541.053H287.23Z"
      fill="#FFBC5B" />
    <path fillRule="evenodd" clip-rule="evenodd"
      d="M256.425 554.104C261.873 558.198 268.659 560.629 276 560.629C283.34 560.629 290.126 558.198 295.575 554.104H256.425Z"
      fill="#FF2D55" />
    <path fillRule="evenodd" clip-rule="evenodd"
      d="M249.899 547.577C251.759 550.04 253.961 552.243 256.424 554.102H295.574C298.038 552.243 300.24 550.04 302.099 547.577H249.899Z"
      fill="#FC9965" />
    <path
      d="M249.073 521.492C248.412 520.455 248.716 519.078 249.753 518.416L252.57 516.618C253.088 516.287 253.777 516.439 254.108 516.958L254.759 517.979C255.303 517.869 255.973 516.944 256.594 516.471C258.035 515.375 258.499 513.511 258.503 513.493L267.892 507.5L282.414 507.482L283.612 509.359L275.495 514.54C272.695 517.449 272.905 519.496 272.905 519.496L291.22 546.125C291.882 547.162 291.1 549.559 290.062 550.221L287.813 551.346C286.775 552.008 284.371 551.956 283.709 550.919L267.892 522.94C267.892 522.94 265.815 519.68 261.938 520.69C260.826 520.979 258.845 522.809 258.303 523.531L258.901 524.469C259.232 524.988 259.08 525.676 258.562 526.007L255.745 527.805C254.708 528.467 253.33 528.163 252.669 527.125L249.073 521.492Z"
      fill="url(#paint1_linear_11563_75516)" />
    <path
      d="M251.251 520.161C250.589 519.124 250.893 517.747 251.931 517.085L254.747 515.287C255.266 514.956 255.954 515.108 256.285 515.627C256.678 516.242 257.427 516.582 258.074 516.244C258.289 516.131 258.508 515.994 258.726 515.828C259.647 515.128 260.187 513.833 260.459 512.984C260.625 512.465 260.94 511.996 261.4 511.702L269.578 506.483C269.899 506.278 270.271 506.169 270.652 506.169L283.802 506.152C284.294 506.151 284.752 506.401 285.016 506.816C285.444 507.486 285.247 508.375 284.578 508.802L277.873 513.081C277.74 513.166 277.616 513.267 277.508 513.383C275.675 515.348 275.219 516.899 275.111 517.657C275.063 517.989 275.182 518.31 275.372 518.586L293.398 544.794C294.06 545.831 293.116 548.277 292.079 548.939L290.202 550.137C289.165 550.799 286.549 550.625 285.887 549.588L269.601 522.019C269.5 521.847 269.376 521.692 269.216 521.573C268.497 521.031 266.157 519.554 262.957 520.388C262.269 520.567 261.691 520.942 261.222 521.374C260.73 521.827 260.719 522.574 261.079 523.138C261.41 523.657 261.258 524.345 260.739 524.676L257.923 526.474C256.885 527.136 255.508 526.832 254.846 525.794L251.251 520.161Z"
      fill="white" />
    <path
      d="M348.188 539.565C341.797 539.565 337.828 535.034 337.828 527.753V527.722C337.828 520.409 341.781 515.894 348.172 515.894C353.297 515.894 357.188 519.144 357.719 523.753V523.878H353.766L353.75 523.815C353.172 521.144 351.016 519.378 348.172 519.378C344.344 519.378 341.953 522.581 341.953 527.706V527.737C341.953 532.878 344.344 536.081 348.188 536.081C351.047 536.081 353.172 534.487 353.75 532.003L353.766 531.925H357.719V532.034C357.125 536.55 353.391 539.565 348.188 539.565ZM361.684 539.003V521.925H365.575V524.55H365.841C366.419 522.722 367.981 521.644 370.231 521.644C370.825 521.644 371.434 521.722 371.809 521.831V525.315C371.184 525.19 370.544 525.097 369.872 525.097C367.278 525.097 365.575 526.644 365.575 529.081V539.003H361.684ZM381.744 539.347C376.666 539.347 373.588 535.94 373.588 530.503V530.487C373.588 525.112 376.697 521.597 381.556 521.597C386.416 521.597 389.416 525.003 389.416 530.159V531.44H377.478C377.525 534.503 379.181 536.284 381.822 536.284C383.931 536.284 385.135 535.222 385.51 534.44L385.556 534.331H389.26L389.213 534.472C388.666 536.675 386.385 539.347 381.744 539.347ZM381.603 524.644C379.431 524.644 377.806 526.112 377.51 528.831H385.619C385.353 526.034 383.775 524.644 381.603 524.644ZM397.835 539.284C394.585 539.284 392.225 537.284 392.225 534.175V534.144C392.225 531.097 394.554 529.315 398.71 529.065L403.1 528.8V527.331C403.1 525.628 401.991 524.69 399.897 524.69C398.116 524.69 396.96 525.331 396.569 526.456L396.554 526.519H392.882L392.897 526.378C393.272 523.503 396.022 521.597 400.085 521.597C404.475 521.597 406.944 523.722 406.944 527.331V539.003H403.1V536.659H402.835C401.897 538.315 400.085 539.284 397.835 539.284ZM396.069 533.987C396.069 535.44 397.304 536.3 399.022 536.3C401.366 536.3 403.1 534.769 403.1 532.737V531.362L399.257 531.612C397.085 531.753 396.069 532.55 396.069 533.956V533.987ZM418.207 539.081C414.285 539.081 412.675 537.769 412.675 534.472V524.94H410.019V521.925H412.675V517.737H416.629V521.925H420.238V524.94H416.629V533.55C416.629 535.253 417.3 535.972 418.925 535.972C419.472 535.972 419.769 535.956 420.238 535.909V538.909C419.675 539.019 418.957 539.081 418.207 539.081ZM431.204 539.347C426.079 539.347 422.985 536.003 422.985 530.472V530.44C422.985 524.956 426.126 521.597 431.204 521.597C436.298 521.597 439.423 524.94 439.423 530.44V530.472C439.423 536.003 436.313 539.347 431.204 539.347ZM431.204 536.19C433.907 536.19 435.438 534.081 435.438 530.487V530.456C435.438 526.862 433.891 524.737 431.204 524.737C428.501 524.737 426.954 526.862 426.954 530.456V530.487C426.954 534.081 428.501 536.19 431.204 536.19ZM443.201 539.003V521.925H447.091V524.55H447.357C447.935 522.722 449.498 521.644 451.748 521.644C452.341 521.644 452.951 521.722 453.326 521.831V525.315C452.701 525.19 452.06 525.097 451.388 525.097C448.795 525.097 447.091 526.644 447.091 529.081V539.003H443.201ZM456.791 539.003V516.456H460.823V525.831H471.791V516.456H475.807V539.003H471.791V529.222H460.823V539.003H456.791ZM486.507 539.347C482.663 539.347 480.695 537.034 480.695 532.972V521.925H484.585V532.081C484.585 534.722 485.57 536.065 487.913 536.065C490.429 536.065 491.773 534.44 491.773 531.878V521.925H495.663V539.003H491.773V536.409H491.507C490.71 538.237 488.976 539.347 486.507 539.347ZM509.786 539.284C507.395 539.284 505.536 538.19 504.598 536.331H504.332V539.003H500.442V515.315H504.332V524.644H504.598C505.489 522.8 507.442 521.644 509.786 521.644C514.114 521.644 516.801 525.019 516.801 530.456V530.487C516.801 535.894 514.067 539.284 509.786 539.284ZM508.567 536.003C511.223 536.003 512.832 533.925 512.832 530.487V530.456C512.832 527.019 511.223 524.925 508.567 524.925C505.926 524.925 504.286 527.034 504.286 530.456V530.487C504.286 533.909 505.926 536.003 508.567 536.003ZM523.048 539.315C521.626 539.315 520.564 538.237 520.564 536.847C520.564 535.456 521.626 534.378 523.048 534.378C524.486 534.378 525.533 535.456 525.533 536.847C525.533 538.237 524.486 539.315 523.048 539.315ZM536.092 539.284C531.811 539.284 529.092 535.894 529.092 530.487V530.456C529.092 525.019 531.764 521.644 536.092 521.644C538.436 521.644 540.389 522.8 541.279 524.644H541.545V515.315H545.451V539.003H541.545V536.331H541.279C540.342 538.19 538.498 539.284 536.092 539.284ZM537.311 536.003C539.967 536.003 541.608 533.909 541.608 530.487V530.456C541.608 527.034 539.951 524.925 537.311 524.925C534.67 524.925 533.045 527.019 533.045 530.456V530.487C533.045 533.925 534.654 536.003 537.311 536.003ZM550.214 539.003V521.925H554.105V524.581H554.37C555.105 522.675 556.823 521.597 559.058 521.597C561.37 521.597 563.058 522.784 563.792 524.675H564.058C564.886 522.815 566.855 521.597 569.23 521.597C572.667 521.597 574.73 523.706 574.73 527.253V539.003H570.839V528.206C570.839 525.987 569.823 524.862 567.745 524.862C565.714 524.862 564.402 526.378 564.402 528.331V539.003H560.511V527.925C560.511 526.034 559.339 524.862 557.433 524.862C555.511 524.862 554.105 526.487 554.105 528.612V539.003H550.214ZM586.555 545.003C582.055 545.003 579.352 543.081 578.961 540.206L578.977 540.159H582.867L582.883 540.206C583.148 541.3 584.445 542.065 586.617 542.065C589.273 542.065 590.82 540.831 590.82 538.644V535.378H590.555C589.57 537.206 587.711 538.206 585.352 538.206C581.023 538.206 578.336 534.862 578.336 530.019V529.987C578.336 525.05 581.023 521.644 585.43 521.644C587.789 521.644 589.633 522.8 590.602 524.737H590.805V521.925H594.695V538.581C594.695 542.519 591.539 545.003 586.555 545.003ZM586.555 535.112C589.258 535.112 590.883 533.034 590.883 530.019V529.987C590.883 526.972 589.242 524.878 586.555 524.878C583.852 524.878 582.32 526.972 582.32 529.987V530.019C582.32 533.034 583.852 535.112 586.555 535.112Z"
      fill="white" />
    <g filter="url(#filter1_d_11563_75516)">
      <path fillRule="evenodd" clip-rule="evenodd"
        d="M518.703 572.98L538.686 620.477C539.546 622.521 542.444 622.517 543.298 620.47L547.878 609.488L558.197 619.806C561.126 622.735 565.875 622.735 568.803 619.806C571.732 616.877 571.732 612.129 568.803 609.2L558.485 598.881L569.467 594.3C571.514 593.447 571.518 590.549 569.474 589.689L521.977 569.706C519.911 568.837 517.834 570.914 518.703 572.98Z"
        fill="#12131A" />
    </g>
    <path fillRule="evenodd" clip-rule="evenodd"
      d="M546.137 600.675L561.732 616.271C562.709 617.247 564.292 617.247 565.268 616.271C566.244 615.295 566.244 613.712 565.268 612.735L549.672 597.14L562.034 591.983L525.689 576.692L540.98 613.037L546.137 600.675ZM569.467 594.3C571.514 593.447 571.518 590.549 569.474 589.689L521.977 569.706C519.911 568.837 517.834 570.914 518.703 572.98L538.686 620.477C539.546 622.521 542.444 622.517 543.298 620.47L547.878 609.488L558.197 619.806C561.126 622.735 565.875 622.735 568.803 619.806C571.732 616.877 571.732 612.129 568.803 609.2L558.485 598.881L569.467 594.3Z"
      fill="white" />
  </g>
  <defs>
    <filter id="filter0_dd_11563_75516" x="162" y="348" width="700" height="363"
      filterUnits="userSpaceOnUse" color-interpolation-filters="sRGB">
      <feFlood flood-opacity="0" result="BackgroundImageFix" />
      <feColorMatrix in="SourceAlpha" type="matrix"
        values="0 0 0 0 0 0 0 0 0 0 0 0 0 0 0 0 0 0 127 0" result="hardAlpha" />
      <feOffset dy="25" />
      <feGaussianBlur stdDeviation="15" />
      <feComposite in2="hardAlpha" operator="out" />
      <feColorMatrix type="matrix" values="0 0 0 0 0 0 0 0 0 0 0 0 0 0 0 0 0 0 0.35 0" />
      <feBlend mode="normal" in2="BackgroundImageFix" result="effect1_dropShadow_11563_75516" />
      <feColorMatrix in="SourceAlpha" type="matrix"
        values="0 0 0 0 0 0 0 0 0 0 0 0 0 0 0 0 0 0 127 0" result="hardAlpha" />
      <feOffset />
      <feGaussianBlur stdDeviation="10" />
      <feComposite in2="hardAlpha" operator="out" />
      <feColorMatrix type="matrix" values="0 0 0 0 0 0 0 0 0 0 0 0 0 0 0 0 0 0 0.15 0" />
      <feBlend mode="normal" in2="effect1_dropShadow_11563_75516"
        result="effect2_dropShadow_11563_75516" />
      <feBlend mode="normal" in="SourceGraphic" in2="effect2_dropShadow_11563_75516" result="shape" />
    </filter>
    <filter id="filter1_d_11563_75516" x="515.5" y="568.003" width="58.5049" height="58.5049"
      filterUnits="userSpaceOnUse" color-interpolation-filters="sRGB">
      <feFlood flood-opacity="0" result="BackgroundImageFix" />
      <feColorMatrix in="SourceAlpha" type="matrix"
        values="0 0 0 0 0 0 0 0 0 0 0 0 0 0 0 0 0 0 127 0" result="hardAlpha" />
      <feOffset dy="1.5" />
      <feGaussianBlur stdDeviation="1.5" />
      <feComposite in2="hardAlpha" operator="out" />
      <feColorMatrix type="matrix"
        values="0 0 0 0 0.0705882 0 0 0 0 0.0745098 0 0 0 0 0.101961 0 0 0 0.25 0" />
      <feBlend mode="normal" in2="BackgroundImageFix" result="effect1_dropShadow_11563_75516" />
      <feBlend mode="normal" in="SourceGraphic" in2="effect1_dropShadow_11563_75516" result="shape" />
    </filter>
    <linearGradient id="paint0_linear_11563_75516" x1="276" y1="481.864" x2="229.861" y2="528.003"
      gradientUnits="userSpaceOnUse">
      <stop stop-color="#FF2D55" />
      <stop offset="1" stop-color="#FFBC5B" />
    </linearGradient>
    <linearGradient id="paint1_linear_11563_75516" x1="247.865" y1="519.621" x2="273.93"
      y2="560.463" gradientUnits="userSpaceOnUse">
      <stop stop-color="#A524B3" />
      <stop offset="1" stop-color="#FF2D55" />
    </linearGradient>
  </defs>
</svg>
  